<svg width="113" height="147" viewBox="0 0 113 147" fill="none" xmlns="http://www.w3.org/2000/svg">
<rect x="28.5397" width="63.3453" height="34.1863" rx="12.0658" fill="#2AC96D"/>
<rect x="35.5785" y="6.03125" width="47.2576" height="32.1754" rx="12.0658" fill="white"/>
<path d="M12.0783 31.5411C11.2234 26.6217 15.0102 22.1201 20.0033 22.1201H103.154C108.241 22.1201 112.051 26.7834 111.036 31.7685L94.6618 112.207C93.899 115.954 90.6036 118.646 86.7796 118.646H33.9814C30.0702 118.646 26.7259 115.833 26.0563 111.98L12.0783 31.5411Z" fill="#12743B"/>
<path d="M10.8077 25.5023L23.6363 23.1246L35.4119 86.6599C36.6242 93.2009 32.3136 99.4891 25.7755 100.717L24.0153 101.048L10.8077 25.5023Z" fill="#64CA8F"/>
<path d="M99.8953 21.2728L112.68 23.874L94.5842 112.193C93.1342 119.269 83.6713 120.738 80.1449 114.433L99.8953 21.2728Z" fill="#0A5429"/>
<path d="M88.8687 118.649L96.161 105.311L60.9424 104.761C54.2861 104.657 48.8034 109.963 48.6899 116.62L48.6493 119.007L88.8687 118.649Z" fill="#0A5429"/>
<rect x="10.4411" y="15.0771" width="102.559" height="21.1151" rx="10.5575" fill="#2AC96D"/>
<rect x="26.5286" y="21.1133" width="22.1206" height="8.04385" rx="4.02192" fill="white"/>
<ellipse cx="56.3362" cy="137.773" rx="56.3362" ry="8.36677" fill="#ABABAD"/>
</svg>
